<svg id="Capa_1" data-name="Capa 1" xmlns="http://www.w3.org/2000/svg" viewBox="0 0 601.79 203.29"><defs><style>.cls-1{fill:#b0a96f;}.cls-2{fill:#d5c99e;}</style></defs><path class="cls-1" d="M133.9,69,94.64,61.37a6.41,6.41,0,0,0-7.09,3.7h0l-.06.09L69.6,97a6.41,6.41,0,0,0-.69,4.44l.71,3.46L76,136.78a6.42,6.42,0,0,0,6.3,5.18h55.49a6.42,6.42,0,0,0,6.15-4.59l.14-.46h0l6.58-20.47q.67-2.13,1.17-4.32l.49-2.16a6.4,6.4,0,0,0-.3-3.82L138.62,72.92A6.39,6.39,0,0,0,133.9,69Z"/><path class="cls-2" d="M145.24,133.07l4.86-15a12.56,12.56,0,0,0,0-7.53L138.65,73.37a6.39,6.39,0,0,0-5.53-4.47L90.27,65.27a4.18,4.18,0,0,0-4.21,2.45L70.46,103A6.39,6.39,0,0,0,70,106.9l5.85,29.47a6.41,6.41,0,0,0,6.78,5.16L140,137.22A6,6,0,0,0,145.24,133.07Z"/><path class="cls-1" d="M293.75,128.79a2.48,2.48,0,0,1-1.69,2.85,40.38,40.38,0,0,1-11.32,1.48c-18.18,0-27.54-11.36-27.54-26.32C253.2,88.91,266,79,281.86,79a38.32,38.32,0,0,1,9.88,1.18,3.3,3.3,0,0,1,2.31,4l-.8,3.1a3.29,3.29,0,0,1-4.07,2.33,26.4,26.4,0,0,0-6.79-.86c-9.36,0-16.7,5.71-16.7,17.37,0,10.52,6.2,17.13,16.77,17.13a31.94,31.94,0,0,0,7.37-.88,2.5,2.5,0,0,1,3.07,2Z"/><path class="cls-1" d="M333.17,115c0,12.46-8.82,18.16-18,18.16-9.92,0-17.61-6.56-17.61-17.57s7.26-18.07,18.22-18.07C326.24,97.51,333.17,104.69,333.17,115ZM309,110.71c-1.59,7.94.85,14.87,6.51,14.87,4.13,0,6.75-4.14,6.75-10.3,0-5-1.89-10-6.55-10.19A6.82,6.82,0,0,0,309,110.71Z"/><path class="cls-1" d="M339.76,109.52c0-3.63-.05-6.36-.15-8.71A2.43,2.43,0,0,1,342,98.28h4.26a2.43,2.43,0,0,1,2.43,2.28l.24,4h.27a10,10,0,0,1,9.2-7.08h.64a1.66,1.66,0,0,1,1.63,1.66v6.56a1.67,1.67,0,0,1-1.78,1.68c-.33,0-.69,0-1.09,0-3.9,0-6.56,2.06-7.27,5.38a12.89,12.89,0,0,0-.19,2.36v14.65a2.6,2.6,0,0,1-2.61,2.6h-5.4a2.6,2.6,0,0,1-2.61-2.6Z"/><path class="cls-1" d="M398.16,121.45c0,3.26.07,6.1.17,8.51a2.34,2.34,0,0,1-2.34,2.42h-4.63a2.34,2.34,0,0,1-2.33-2.1l-.27-2.71h-.22a12.09,12.09,0,0,1-10.63,5.58c-6.93,0-12-4.34-12-14.82v-17A3.06,3.06,0,0,1,369,98.28h4.5a3.06,3.06,0,0,1,3.06,3.06v15.27c0,5,1.6,8,5.34,8a5.64,5.64,0,0,0,5.27-3.73,5.89,5.89,0,0,0,.38-2.25V100.92a2.64,2.64,0,0,1,2.64-2.64h5.34a2.64,2.64,0,0,1,2.64,2.64Z"/><path class="cls-1" d="M432.09,130.35a1.47,1.47,0,0,1-1,1.64,28.47,28.47,0,0,1-8.3,1.13c-11,0-18-6.75-18-17.46,0-10,6.82-18.12,19.5-18.12a26.26,26.26,0,0,1,6.33.79,1.93,1.93,0,0,1,1.41,2.25l-.86,4.08a1.9,1.9,0,0,1-2.34,1.45,17,17,0,0,0-4-.44c-5.6,0-9.19,4-9.15,9.56,0,6.27,4.2,9.59,9.33,9.59a16.78,16.78,0,0,0,4.55-.58,1.47,1.47,0,0,1,1.84,1.18Z"/><path class="cls-1" d="M440.33,86.18h6.22a2.21,2.21,0,0,1,2.2,2.2v14h.14a12.08,12.08,0,0,1,9.67-4.88c6.77,0,11.95,4.69,11.95,15v17.65a2.24,2.24,0,0,1-2.25,2.24h-6.12a2.24,2.24,0,0,1-2.25-2.24V113.65c0-4.49-1.55-7.56-5.48-7.56a5.58,5.58,0,0,0-5.32,3.75,6.4,6.4,0,0,0-.34,2.31v17.66a2.57,2.57,0,0,1-2.57,2.57H440.7a2.57,2.57,0,0,1-2.57-2.57V88.38A2.2,2.2,0,0,1,440.33,86.18Z"/><path class="cls-1" d="M499.93,132.38a1.85,1.85,0,0,1-1.82-1.5l-.35-1.88h-.22a12.25,12.25,0,0,1-9.74,4.15c-6.94,0-11-5-11-10.43,0-8.89,8-13.1,20-13.08v-.44c0-1.81-1-4.4-6.24-4.39a20,20,0,0,0-7.23,1.47,2.16,2.16,0,0,1-2.89-1.41l-.73-2.56a2.15,2.15,0,0,1,1.19-2.58,29.43,29.43,0,0,1,11.56-2.22c11.36,0,14.95,6.72,14.95,14.72v11.89c0,2.28.08,4.48.26,6.25a1.85,1.85,0,0,1-1.85,2Zm-2.82-16.13c-5.58,0-9.89,1.32-9.89,5.38,0,2.75,1.79,4.08,4.21,4.08a5.79,5.79,0,0,0,5.48-3.91,6.75,6.75,0,0,0,.2-1.81Z"/><path class="cls-1" d="M118.86,79.13h0a11.18,11.18,0,0,0-11.23,11.12v29.52a1.59,1.59,0,0,0,1.59,1.59H128.5a1.59,1.59,0,0,0,1.59-1.59V90.25A11.18,11.18,0,0,0,118.86,79.13Z"/><path class="cls-1" d="M175.94,79h8.23a2,2,0,0,1,2,2V113.9a9,9,0,0,0,8.95,8.94h10.59a2,2,0,0,1,2,2v6.24a2,2,0,0,1-2,2H192.36a18.42,18.42,0,0,1-18.43-18.41V81A2,2,0,0,1,175.94,79Z"/><path class="cls-1" d="M233.51,132.36a2.11,2.11,0,0,1-2.07-1.72l-.31-1.69h-.22a12.34,12.34,0,0,1-9.81,4.18c-7,0-11.1-5-11.1-10.5,0-8.95,8-13.19,20.15-13.17V109c0-1.83-1-4.43-6.29-4.42a20.1,20.1,0,0,0-7.51,1.58,1.9,1.9,0,0,1-2.58-1.19l-.91-3.17a1.87,1.87,0,0,1,1-2.23,29.27,29.27,0,0,1,11.88-2.34c11.43,0,15.05,6.76,15.05,14.82v12c0,2.19.08,4.3.24,6a2.12,2.12,0,0,1-2.11,2.29Zm-3-16.24c-5.62,0-10,1.33-10,5.42,0,2.76,1.8,4.1,4.24,4.1a5.83,5.83,0,0,0,5.52-3.94,6.82,6.82,0,0,0,.2-1.82Z"/></svg>