<svg id="Capa_1" data-name="Capa 1" xmlns="http://www.w3.org/2000/svg" viewBox="0 0 2486.44 1463.01"><defs><style>.cls-1{fill:#b0a96f;}.cls-2{fill:#a09a65;}.cls-3{fill:#d5c99e;}.cls-4{fill:#fff;}.cls-5{fill:#cfc393;}.cls-6{fill:#99995f;}</style></defs><polygon class="cls-1" points="438.17 529.56 152.61 529.56 83.03 236.17 224.21 104.84 504.11 236.17 438.17 529.56"/><path class="cls-1" d="M913.16,533.14H627.6L558,239.75,699.2,108.42,979.1,239.75ZM874,287.44a64.59,64.59,0,0,0-64.59-64.6h0a64.6,64.6,0,0,0-64.6,64.6V461.19H874Z"/><path class="cls-2" d="M868.16,671.42l-189.84-37L670.07,653l-.25.37L594,788.45l4.78,23.1L628,963.07H888.89l6-20.09h0l28.86-94,5.72-25.08Z"/><path class="cls-3" d="M868.16,671.42,670.07,653H670l-.19.38L598.74,811.55,628,963.07,894.84,943h0l28.86-94Z"/><path class="cls-1" d="M1385.51,533.14H1100l-69.58-293.39,141.18-131.33,279.9,131.33ZM1214,191.66h-16a64.59,64.59,0,0,0-64.59,64.59V478.09h145.17V256.25A64.59,64.59,0,0,0,1214,191.66Z"/><path class="cls-1" d="M1160,463.17h6.36v14.62h-23.6V441.88h7v29.65H1160Z"/><path class="cls-1" d="M1190.11,469.84h-10.72l-2.47,8h-7l11.6-35.91h7l11.55,35.91h-7.39ZM1181,464.2h7.7l-3.65-12h-.46Z"/><path class="cls-4" d="M1151.22,514.26h5.52v10a12.27,12.27,0,0,1-4.09,1.8,19.74,19.74,0,0,1-5.09.66,20.15,20.15,0,0,1-6.29-1,13.48,13.48,0,0,1-5.24-3.16,15.58,15.58,0,0,1-3.61-5.66,23.47,23.47,0,0,1-1.35-8.45,21.54,21.54,0,0,1,1.53-8.65,16.07,16.07,0,0,1,3.93-5.62,14.64,14.64,0,0,1,5.37-3.05,19.3,19.3,0,0,1,5.81-.93,22.32,22.32,0,0,1,5.09.5,17.32,17.32,0,0,1,3.43,1.15v10.43h-5.51v-5.71a19.87,19.87,0,0,0-3.21-.25,9.12,9.12,0,0,0-3.63.72,8,8,0,0,0-2.94,2.23,11,11,0,0,0-2,3.79,18.36,18.36,0,0,0-.7,5.39,17.43,17.43,0,0,0,.65,4.94,11.36,11.36,0,0,0,1.9,3.83,8.63,8.63,0,0,0,3.06,2.48,9.2,9.2,0,0,0,4.11.88,16.88,16.88,0,0,0,3.21-.3Z"/><path class="cls-4" d="M1160.85,508.5a33.28,33.28,0,0,1,.8-7.67,16,16,0,0,1,2.46-5.74,11.21,11.21,0,0,1,4.13-3.59,12.89,12.89,0,0,1,5.84-1.25,12.76,12.76,0,0,1,6.12,1.35,11.24,11.24,0,0,1,4.08,3.76,17,17,0,0,1,2.31,5.77,35.13,35.13,0,0,1,.73,7.37q0,8.57-3.29,13.41t-10,4.84a12.78,12.78,0,0,1-6.14-1.36,11,11,0,0,1-4.11-3.76,16.62,16.62,0,0,1-2.28-5.76A36,36,0,0,1,1160.85,508.5Zm7.22,0a47.14,47.14,0,0,0,.22,4.76,14.93,14.93,0,0,0,.85,3.84,6.06,6.06,0,0,0,1.81,2.58,4.85,4.85,0,0,0,3.13,1,5.32,5.32,0,0,0,2.91-.73,5,5,0,0,0,1.85-2.23,12.35,12.35,0,0,0,1-3.78,44.28,44.28,0,0,0,.28-5.39c0-1.64-.06-3.19-.18-4.66a14,14,0,0,0-.8-3.86,6.09,6.09,0,0,0-1.83-2.64,4.94,4.94,0,0,0-3.21-1,4.69,4.69,0,0,0-4.76,3.05C1168.48,501.46,1168.07,504.49,1168.07,508.5Z"/><path class="cls-4" d="M1192.23,491.3c.77-.13,1.6-.26,2.48-.37s1.77-.21,2.66-.28,1.74-.12,2.58-.15,1.6-.05,2.31-.05a24.35,24.35,0,0,1,4.83.48,12.82,12.82,0,0,1,4.27,1.63,8.58,8.58,0,0,1,3,3.1,9.56,9.56,0,0,1,1.13,4.87,14.63,14.63,0,0,1-.42,3.73,10.49,10.49,0,0,1-1.18,2.78,8.13,8.13,0,0,1-1.83,2.08,15.63,15.63,0,0,1-2.33,1.58L1218.2,526h-7.92l-7.07-13.73h-4.11V526h-6.87Zm10.53,5.27c-.7,0-1.4,0-2.08.05a7.57,7.57,0,0,0-1.58.2V507h2.7a7.79,7.79,0,0,0,4.67-1.3,5,5,0,0,0,1.8-4.31,4.57,4.57,0,0,0-1.4-3.54A5.93,5.93,0,0,0,1202.76,496.57Z"/><path class="cls-4" d="M1240.26,491h6.51v22.46a17.29,17.29,0,0,1-.9,5.89,10.89,10.89,0,0,1-2.53,4.11,10.22,10.22,0,0,1-3.88,2.43,14.64,14.64,0,0,1-5,.81q-6.51,0-9.65-3.16t-3.13-9.23V491h6.87v22q0,4,1.45,5.82a5.52,5.52,0,0,0,4.56,1.8,4.88,4.88,0,0,0,4.34-1.93,10.09,10.09,0,0,0,1.33-5.69Z"/><path class="cls-4" d="M1271.54,514.26h5.52v10a12.36,12.36,0,0,1-4.09,1.8,19.74,19.74,0,0,1-5.09.66,20.1,20.1,0,0,1-6.29-1,13.48,13.48,0,0,1-5.24-3.16,15.58,15.58,0,0,1-3.61-5.66,23.47,23.47,0,0,1-1.35-8.45,21.54,21.54,0,0,1,1.53-8.65,16.07,16.07,0,0,1,3.93-5.62,14.64,14.64,0,0,1,5.37-3.05,19.3,19.3,0,0,1,5.81-.93,22.32,22.32,0,0,1,5.09.5,17.32,17.32,0,0,1,3.43,1.15v10.43H1271v-5.71a19.87,19.87,0,0,0-3.21-.25,9.08,9.08,0,0,0-3.63.72,8,8,0,0,0-2.94,2.23,11,11,0,0,0-2,3.79,18.36,18.36,0,0,0-.7,5.39,17.43,17.43,0,0,0,.65,4.94,11.36,11.36,0,0,0,1.9,3.83,8.63,8.63,0,0,0,3.06,2.48,9.2,9.2,0,0,0,4.11.88,17,17,0,0,0,3.21-.3Z"/><path class="cls-4" d="M1300.07,511.36h-11.33V526h-6.87V491h6.87v14.29h11.33V491h6.86V526h-6.86Z"/><path class="cls-4" d="M1329.49,518.27H1319l-2.41,7.77h-6.87L1321.07,491h6.87L1339.22,526H1332Zm-8.87-5.51h7.52L1324.58,501h-.45Z"/><path class="cls-1" d="M431.94,957.34H166L106.8,715.75,219.65,565.89l190.79,65.16L480.34,745ZM338.67,656.86h-.44a57.89,57.89,0,0,0-57.89,57.89V874.38H396.56V714.75A57.89,57.89,0,0,0,338.67,656.86Z"/><path class="cls-4" d="M201.76,917H208v11.28a13.72,13.72,0,0,1-4.59,2,22.4,22.4,0,0,1-5.73.74,22.71,22.71,0,0,1-7.08-1.1,15.24,15.24,0,0,1-5.89-3.56,17.46,17.46,0,0,1-4.06-6.37,26.18,26.18,0,0,1-1.52-9.5,24.15,24.15,0,0,1,1.72-9.73,17.88,17.88,0,0,1,4.42-6.32,16.53,16.53,0,0,1,6-3.44,22,22,0,0,1,6.54-1,25.28,25.28,0,0,1,5.73.56,19.89,19.89,0,0,1,3.86,1.3v11.73h-6.2v-6.43a22.46,22.46,0,0,0-3.61-.28,10.1,10.1,0,0,0-4.09.82,8.76,8.76,0,0,0-3.3,2.51,11.94,11.94,0,0,0-2.2,4.25,20.69,20.69,0,0,0-.79,6.07,19.68,19.68,0,0,0,.73,5.55,12.6,12.6,0,0,0,2.15,4.32,9.6,9.6,0,0,0,3.44,2.79,10.39,10.39,0,0,0,4.62,1,19.47,19.47,0,0,0,3.61-.34Z"/><path class="cls-4" d="M212.59,910.51a37.87,37.87,0,0,1,.9-8.63,18.26,18.26,0,0,1,2.76-6.46,12.54,12.54,0,0,1,4.66-4,16.17,16.17,0,0,1,13.45.11,12.59,12.59,0,0,1,4.59,4.23,19.11,19.11,0,0,1,2.6,6.49,39.55,39.55,0,0,1,.82,8.29q0,9.65-3.7,15.08T227.48,931a14.43,14.43,0,0,1-6.91-1.53,12.46,12.46,0,0,1-4.63-4.23,18.55,18.55,0,0,1-2.56-6.48A40.31,40.31,0,0,1,212.59,910.51Zm8.12,0a52.86,52.86,0,0,0,.25,5.36,16.84,16.84,0,0,0,1,4.31,6.76,6.76,0,0,0,2,2.9,5.41,5.41,0,0,0,3.53,1.08,6.1,6.1,0,0,0,3.27-.82,5.71,5.71,0,0,0,2.08-2.51,13.89,13.89,0,0,0,1.1-4.26,50.6,50.6,0,0,0,.31-6.06c0-1.84-.06-3.59-.19-5.25a16.13,16.13,0,0,0-.91-4.34,6.82,6.82,0,0,0-2-3,5.59,5.59,0,0,0-3.61-1.1,5.28,5.28,0,0,0-5.36,3.44C221.18,902.59,220.71,906,220.71,910.51Z"/><path class="cls-4" d="M247.89,891.16q1.31-.23,2.79-.42c1-.13,2-.23,3-.31s2-.13,2.91-.17,1.8-.06,2.59-.06a27.42,27.42,0,0,1,5.44.54,14.7,14.7,0,0,1,4.8,1.83,9.7,9.7,0,0,1,3.38,3.5,10.77,10.77,0,0,1,1.27,5.47,16.18,16.18,0,0,1-.48,4.2,11.57,11.57,0,0,1-1.32,3.13,9.63,9.63,0,0,1-2.06,2.34,19.15,19.15,0,0,1-2.62,1.78l9.53,17.26H268.2l-8-15.46h-4.62v15.46h-7.73Zm11.85,5.92c-.79,0-1.57,0-2.35.06a8.29,8.29,0,0,0-1.77.23v11.45h3a8.72,8.72,0,0,0,5.25-1.47q2-1.47,2-4.85a5.13,5.13,0,0,0-1.58-4A6.63,6.63,0,0,0,259.74,897.08Z"/><path class="cls-4" d="M301.92,890.77h7.33V916a19.34,19.34,0,0,1-1,6.63,12.6,12.6,0,0,1-2.85,4.63A11.57,11.57,0,0,1,301,930a16.58,16.58,0,0,1-5.58.9q-7.33,0-10.86-3.55T281.05,917V890.77h7.73v24.7c0,3,.54,5.19,1.64,6.54s2.8,2,5.13,2,3.88-.72,4.88-2.17a11.36,11.36,0,0,0,1.49-6.4Z"/><path class="cls-4" d="M337.11,917h6.21v11.28a13.67,13.67,0,0,1-4.6,2A22.38,22.38,0,0,1,333,931a22.71,22.71,0,0,1-7.08-1.1,15.17,15.17,0,0,1-5.89-3.56A17.48,17.48,0,0,1,316,920a26.39,26.39,0,0,1-1.52-9.5,24.15,24.15,0,0,1,1.72-9.73,17.9,17.9,0,0,1,4.43-6.32,16.49,16.49,0,0,1,6-3.44,22,22,0,0,1,6.55-1,25.19,25.19,0,0,1,5.72.56,19.66,19.66,0,0,1,3.86,1.3v11.73h-6.2v-6.43a22.46,22.46,0,0,0-3.61-.28,10.1,10.1,0,0,0-4.09.82,8.76,8.76,0,0,0-3.3,2.51,12.1,12.1,0,0,0-2.2,4.25,21,21,0,0,0-.79,6.07,19.67,19.67,0,0,0,.74,5.55,12.58,12.58,0,0,0,2.14,4.32,9.78,9.78,0,0,0,3.44,2.79,10.39,10.39,0,0,0,4.62,1,19.31,19.31,0,0,0,3.61-.34Z"/><path class="cls-4" d="M369.2,913.72H356.46v16.53h-7.73V890.77h7.73v16.07H369.2V890.77h7.73v39.48H369.2Z"/><path class="cls-4" d="M402.31,921.51H390.52l-2.7,8.74h-7.73l12.74-39.48h7.73l12.69,39.48h-8.12Zm-10-6.21h8.46l-4-13.2h-.51Z"/><path class="cls-4" d="M199.78,857.94h7.16v16.44H180.41V834h7.9v33.33h11.47Z"/><path class="cls-4" d="M233.58,865.44H221.53l-2.77,8.94h-7.9l13-40.37h7.9l13,40.37h-8.31Zm-10.21-6.34H232l-4.09-13.5h-.52Z"/><path class="cls-1" d="M2343.79,533.14H2058.23l-69.58-293.39,141.18-131.33,279.9,131.33Zm-39.19-245.7a64.59,64.59,0,0,0-64.59-64.6h0a64.59,64.59,0,0,0-64.59,64.6V461.19H2304.6Z"/><path class="cls-4" d="M2119.44,503H2125v10a12.42,12.42,0,0,1-4.08,1.81,20.49,20.49,0,0,1-11.38-.33,13.36,13.36,0,0,1-5.24-3.16,15.45,15.45,0,0,1-3.61-5.66,23.42,23.42,0,0,1-1.36-8.45,21.57,21.57,0,0,1,1.53-8.65,15.82,15.82,0,0,1,3.94-5.61,14.62,14.62,0,0,1,5.36-3.06,19.32,19.32,0,0,1,5.82-.93,22.38,22.38,0,0,1,5.09.5,17.5,17.5,0,0,1,3.43,1.16V491h-5.51v-5.72a19.87,19.87,0,0,0-3.21-.25,9,9,0,0,0-3.64.73,7.75,7.75,0,0,0-2.93,2.23,10.71,10.71,0,0,0-1.95,3.78,18.34,18.34,0,0,0-.71,5.39,17.37,17.37,0,0,0,.66,4.94,11.14,11.14,0,0,0,1.9,3.84,8.85,8.85,0,0,0,3.06,2.48,9.33,9.33,0,0,0,4.11.87,17,17,0,0,0,3.21-.3Z"/><path class="cls-4" d="M2129.06,497.2a33.25,33.25,0,0,1,.81-7.67,16.2,16.2,0,0,1,2.45-5.74,11.21,11.21,0,0,1,4.14-3.58,14.31,14.31,0,0,1,12,.1,11.07,11.07,0,0,1,4.08,3.76,17,17,0,0,1,2.31,5.76,35.23,35.23,0,0,1,.72,7.37q0,8.58-3.28,13.41t-9.95,4.84a12.87,12.87,0,0,1-6.14-1.35,11.17,11.17,0,0,1-4.11-3.76,16.37,16.37,0,0,1-2.28-5.77A35.87,35.87,0,0,1,2129.06,497.2Zm7.22,0a46.87,46.87,0,0,0,.23,4.76,14.83,14.83,0,0,0,.85,3.84,5.94,5.94,0,0,0,1.81,2.58,4.79,4.79,0,0,0,3.13.95,5.41,5.41,0,0,0,2.91-.72,5.19,5.19,0,0,0,1.85-2.23,12.5,12.5,0,0,0,1-3.79,46.4,46.4,0,0,0,.28-5.39c0-1.64-.06-3.19-.18-4.66a14.45,14.45,0,0,0-.8-3.86,6.11,6.11,0,0,0-1.83-2.63,4.88,4.88,0,0,0-3.21-1,4.69,4.69,0,0,0-4.76,3.06Q2136.28,491.19,2136.28,497.2Z"/><path class="cls-4" d="M2160.45,480c.77-.14,1.59-.26,2.48-.38s1.77-.21,2.66-.28l2.58-.15c.83,0,1.6-.05,2.3-.05a24.45,24.45,0,0,1,4.84.48,12.89,12.89,0,0,1,4.26,1.63,8.55,8.55,0,0,1,3,3.11,9.6,9.6,0,0,1,1.13,4.86,14.25,14.25,0,0,1-.43,3.74,9.87,9.87,0,0,1-1.18,2.78,8.48,8.48,0,0,1-1.83,2.08,16.14,16.14,0,0,1-2.33,1.58l8.48,15.34h-7.92L2171.43,501h-4.11v13.74h-6.87Zm10.52,5.26c-.7,0-1.39,0-2.08.05a7.46,7.46,0,0,0-1.57.2V495.7h2.7a7.8,7.8,0,0,0,4.67-1.31q1.8-1.29,1.8-4.31a4.55,4.55,0,0,0-1.4-3.53A6,6,0,0,0,2171,485.27Z"/><path class="cls-4" d="M2208.48,479.65H2215v22.46a17.35,17.35,0,0,1-.9,5.9,11.17,11.17,0,0,1-2.53,4.11,10.43,10.43,0,0,1-3.89,2.43,14.83,14.83,0,0,1-5,.8q-6.52,0-9.65-3.16t-3.13-9.22V479.65h6.86v22q0,4,1.46,5.82a5.52,5.52,0,0,0,4.56,1.8,4.9,4.9,0,0,0,4.34-1.93,10.07,10.07,0,0,0,1.33-5.69Z"/><path class="cls-4" d="M2239.76,503h5.51v10a12.42,12.42,0,0,1-4.08,1.81,20.49,20.49,0,0,1-11.38-.33,13.36,13.36,0,0,1-5.24-3.16,15.45,15.45,0,0,1-3.61-5.66,23.42,23.42,0,0,1-1.36-8.45,21.57,21.57,0,0,1,1.53-8.65,15.82,15.82,0,0,1,3.94-5.61,14.62,14.62,0,0,1,5.36-3.06,19.32,19.32,0,0,1,5.82-.93,22.38,22.38,0,0,1,5.09.5,17.5,17.5,0,0,1,3.43,1.16V491h-5.51v-5.72a19.87,19.87,0,0,0-3.21-.25,9,9,0,0,0-3.64.73,7.75,7.75,0,0,0-2.93,2.23,10.71,10.71,0,0,0-1.95,3.78,18.34,18.34,0,0,0-.71,5.39,17.37,17.37,0,0,0,.66,4.94,11.14,11.14,0,0,0,1.9,3.84,8.76,8.76,0,0,0,3.06,2.48,9.33,9.33,0,0,0,4.11.87,17,17,0,0,0,3.21-.3Z"/><path class="cls-4" d="M2268.28,500.06H2257v14.69h-6.87v-35.1H2257v14.29h11.33V479.65h6.87v35.1h-6.87Z"/><path class="cls-4" d="M2297.71,507h-10.48l-2.4,7.77H2278l11.33-35.1h6.87l11.28,35.1h-7.22Zm-8.87-5.52h7.52l-3.56-11.73h-.45Z"/><path class="cls-4" d="M2117.68,457.48H2124v14.61h-23.58V436.2h7v29.63h10.2Z"/><path class="cls-4" d="M2147.72,464.14H2137l-2.46,7.95h-7l11.58-35.89h7l11.54,35.89h-7.38Zm-9.07-5.64h7.69l-3.64-12h-.46Z"/><path class="cls-1" d="M1856.36,533.14H1570.8l-69.58-293.39L1642.4,108.42l279.9,131.33ZM1634.55,238.43h0a43.22,43.22,0,0,0-43.21,43.21V457.71h86.42V281.64A43.22,43.22,0,0,0,1634.55,238.43Z"/><path class="cls-4" d="M1606.69,501h7v12.8a15.74,15.74,0,0,1-5.22,2.3,26.13,26.13,0,0,1-14.52-.42,17.17,17.17,0,0,1-6.68-4,20,20,0,0,1-4.61-7.22,29.9,29.9,0,0,1-1.72-10.78,27.55,27.55,0,0,1,2-11,20.2,20.2,0,0,1,5-7.16,18.76,18.76,0,0,1,6.84-3.9,24.7,24.7,0,0,1,7.42-1.18,27.94,27.94,0,0,1,6.49.64,21.57,21.57,0,0,1,4.39,1.47v13.3h-7v-7.29a26.06,26.06,0,0,0-4.09-.32,11.51,11.51,0,0,0-4.64.93,10,10,0,0,0-3.74,2.84,13.78,13.78,0,0,0-2.5,4.83,23.79,23.79,0,0,0-.89,6.88,22.24,22.24,0,0,0,.83,6.3,14.19,14.19,0,0,0,2.43,4.89,11,11,0,0,0,3.9,3.17,12,12,0,0,0,5.25,1.12,21.17,21.17,0,0,0,4.09-.39Z"/><path class="cls-4" d="M1619,493.62a43,43,0,0,1,1-9.79,20.6,20.6,0,0,1,3.14-7.32,14.23,14.23,0,0,1,5.28-4.57,18.35,18.35,0,0,1,15.25.12,14.2,14.2,0,0,1,5.21,4.8,21.55,21.55,0,0,1,3,7.36,45,45,0,0,1,.92,9.4q0,10.94-4.19,17.11t-12.69,6.17a16.34,16.34,0,0,1-7.84-1.73,14.19,14.19,0,0,1-5.24-4.79,20.93,20.93,0,0,1-2.91-7.36A45.8,45.8,0,0,1,1619,493.62Zm9.21,0a60.62,60.62,0,0,0,.29,6.08,18.78,18.78,0,0,0,1.09,4.89,7.67,7.67,0,0,0,2.3,3.29,6.16,6.16,0,0,0,4,1.22,6.85,6.85,0,0,0,3.71-.93,6.45,6.45,0,0,0,2.36-2.85,15.76,15.76,0,0,0,1.25-4.83,59.17,59.17,0,0,0,.35-6.87q0-3.14-.22-5.95a17.58,17.58,0,0,0-1-4.92,7.73,7.73,0,0,0-2.33-3.36,6.3,6.3,0,0,0-4.09-1.25,6,6,0,0,0-6.08,3.9Q1628.18,485.94,1628.18,493.62Z"/><path class="cls-4" d="M1659,471.68c1-.17,2-.33,3.17-.48s2.26-.27,3.39-.35,2.22-.15,3.29-.19,2.05-.07,2.94-.07a31.13,31.13,0,0,1,6.18.61,16.63,16.63,0,0,1,5.43,2.08,11,11,0,0,1,3.84,4,12.3,12.3,0,0,1,1.44,6.21,18.05,18.05,0,0,1-.55,4.76,12.87,12.87,0,0,1-1.5,3.55,10.83,10.83,0,0,1-2.33,2.66,20.72,20.72,0,0,1-3,2L1692.14,516H1682l-9-17.53h-5.25V516H1659Zm13.43,6.72c-.89,0-1.78,0-2.65.06a9.59,9.59,0,0,0-2,.26v13h3.46a9.92,9.92,0,0,0,6-1.66c1.53-1.11,2.3-3,2.3-5.5a5.79,5.79,0,0,0-1.79-4.51A7.54,7.54,0,0,0,1672.44,478.4Z"/><path class="cls-4" d="M1720.29,471.23h8.31v28.66a21.92,21.92,0,0,1-1.15,7.51,14.14,14.14,0,0,1-3.23,5.25,13.2,13.2,0,0,1-5,3.1,18.84,18.84,0,0,1-6.33,1q-8.31,0-12.31-4t-4-11.77V471.23h8.76v28q0,5.12,1.86,7.42t5.82,2.3q3.84,0,5.53-2.46t1.7-7.26Z"/><path class="cls-4" d="M1760.2,501h7v12.8a15.59,15.59,0,0,1-5.21,2.3,26.13,26.13,0,0,1-14.52-.42,17.1,17.1,0,0,1-6.68-4,19.82,19.82,0,0,1-4.61-7.22,29.89,29.89,0,0,1-1.73-10.78,27.46,27.46,0,0,1,2-11,20.16,20.16,0,0,1,5-7.17,18.68,18.68,0,0,1,6.84-3.9,24.7,24.7,0,0,1,7.42-1.18,27.94,27.94,0,0,1,6.49.64,21.46,21.46,0,0,1,4.38,1.47v13.3h-7v-7.29a26.09,26.09,0,0,0-4.1-.32,11.5,11.5,0,0,0-4.63.93,10,10,0,0,0-3.74,2.84,13.78,13.78,0,0,0-2.5,4.83,23.45,23.45,0,0,0-.89,6.88,22.24,22.24,0,0,0,.83,6.3,14.19,14.19,0,0,0,2.43,4.89,10.89,10.89,0,0,0,3.9,3.17,11.91,11.91,0,0,0,5.25,1.12,21.17,21.17,0,0,0,4.09-.39Z"/><path class="cls-4" d="M1796.59,497.26h-14.45V516h-8.77V471.23h8.77v18.23h14.45V471.23h8.76V516h-8.76Z"/><path class="cls-4" d="M1834.14,506.09h-13.37L1817.7,516h-8.76l14.45-44.78h8.76l14.4,44.78h-9.21Zm-11.32-7h9.59l-4.54-15h-.58Z"/><path class="cls-1" d="M1617.74,434.85h10v22.86h-36.9V401.57h11v46.36h16Z"/><path class="cls-1" d="M1664.75,445.28H1648l-3.85,12.43h-11l18.13-56.14h11l18,56.14h-11.55Zm-14.2-8.82h12l-5.69-18.77h-.73Z"/><path class="cls-1" d="M2291.81,662.08,2117.21,616l-11.94,17.56-.25.37-94.8,137.56,4.78,23.11,36.14,171.93h265.93l5.95-20.09h0l33.86-119,5.72-25.08ZM2165.47,883.6V724a57.89,57.89,0,0,1,57.89-57.89h.44a57.88,57.88,0,0,1,57.84,55.65,50.16,50.16,0,0,1,9.32,29.2V889.14H2190.19V883.6Z"/><path class="cls-5" d="M2291.81,662.08l-186.54-28.49h-.06l-.19.38-90,160.67,36.14,171.93L2323,946.47h0l33.86-119Zm-12.71,96.47V876.41h-85V758.55a42.66,42.66,0,0,1,42.45-42.8h0A42.66,42.66,0,0,1,2279.1,758.55Z"/><path class="cls-4" d="M2108.38,833.8h9.41v33.71h16.54v7.88h-25.95Z"/><path class="cls-4" d="M2157,875.39l-.56-3h-.19a10.86,10.86,0,0,1-8.63,3.68c-6.15,0-9.76-4.42-9.76-9.24,0-7.87,7-11.6,17.72-11.58v-.39c0-1.6-.86-3.9-5.53-3.89a17.32,17.32,0,0,0-8.32,2.26l-1.73-6a24.48,24.48,0,0,1,11.74-2.71c10,0,13.23,6,13.23,13v10.52a43.59,43.59,0,0,0,.48,7.32Zm-1.14-14.28c-4.94,0-8.75,1.16-8.75,4.76a3.37,3.37,0,0,0,3.72,3.61,5.13,5.13,0,0,0,4.86-3.46,6.07,6.07,0,0,0,.17-1.61Z"/><path class="cls-4" d="M2096.8,927.78c-1.74.86-5.82,1.85-11,1.85-14.91,0-22.6-9.31-22.6-21.59,0-14.68,10.52-22.81,23.52-22.81,5.06,0,8.91,1,10.6,1.91l-2,7.7a20.42,20.42,0,0,0-8.18-1.62c-7.68,0-13.7,4.69-13.7,14.25,0,8.64,5.08,14.06,13.76,14.06a23.28,23.28,0,0,0,8.13-1.39Z"/><path class="cls-4" d="M2132.53,913c0,11.43-8.09,16.65-16.48,16.65-9.1,0-16.15-6-16.15-16.11s6.66-16.56,16.71-16.56C2126.17,897,2132.53,903.57,2132.53,913Zm-22.61.33c0,5.33,2.26,9.38,6.4,9.38,3.79,0,6.19-3.79,6.19-9.44,0-4.61-1.78-9.34-6.18-9.34C2111.7,903.94,2109.92,908.7,2109.92,913.34Z"/><path class="cls-4" d="M2138.57,908c0-4.59-.08-7.61-.26-10.31h8.36l.35,5.79h.24a9.17,9.17,0,0,1,8.44-6.49,8.35,8.35,0,0,1,2.08.18v9.14a12,12,0,0,0-2.63-.27c-3.57,0-6,1.9-6.66,4.94a10.78,10.78,0,0,0-.19,2.16V929h-9.73Z"/><path class="cls-4" d="M2192.12,918.94c0,4.07.12,7.42.26,10h-8.44l-.44-4.41h-.21a11.07,11.07,0,0,1-9.74,5.11c-6.36,0-11-4-11-13.58V897.69h9.74V914.5c0,4.57,1.47,7.31,4.9,7.31a5.18,5.18,0,0,0,4.83-3.42,5.39,5.39,0,0,0,.35-2.06V897.69h9.74Z"/><path class="cls-4" d="M2223.4,928.18a22.9,22.9,0,0,1-8.71,1.45c-10.1,0-16.54-6.18-16.54-16,0-9.14,6.25-16.61,17.88-16.61a22.32,22.32,0,0,1,7.42,1.23l-1.52,7.22a12.93,12.93,0,0,0-5.44-1c-5.14,0-8.43,3.65-8.39,8.77,0,5.74,3.85,8.79,8.55,8.79a14.53,14.53,0,0,0,5.61-1Z"/><path class="cls-4" d="M2228.76,883.6h9.74v17.86h.13a11.05,11.05,0,0,1,3.81-3.23,10.73,10.73,0,0,1,5.06-1.24c6.2,0,10.95,4.3,10.95,13.73V929h-9.74V911.79c0-4.12-1.41-6.93-5-6.93a5.1,5.1,0,0,0-4.87,3.43,5.82,5.82,0,0,0-.32,2.12V929h-9.74Z"/><path class="cls-4" d="M2284,929l-.58-3.1h-.2a11.24,11.24,0,0,1-8.93,3.8c-6.37,0-10.11-4.57-10.11-9.56,0-8.15,7.29-12,18.35-12v-.4c0-1.67-.89-4-5.72-4a17.87,17.87,0,0,0-8.62,2.34l-1.79-6.23a25.36,25.36,0,0,1,12.15-2.8c10.41,0,13.71,6.15,13.71,13.49v10.91a45.32,45.32,0,0,0,.49,7.57Zm-1.18-14.79c-5.11,0-9.07,1.21-9.07,4.93,0,2.52,1.65,3.74,3.86,3.74a5.31,5.31,0,0,0,5-3.58,6.08,6.08,0,0,0,.18-1.66Z"/><path class="cls-1" d="M1788.08,662.08,1613.49,616l-11.94,17.56-.25.37-94.8,137.56,4.78,23.11,36.14,171.93h265.93l6-20.09h0l33.86-119,5.72-25.08ZM1661.75,883.6V724a57.89,57.89,0,0,1,57.89-57.89h.44a57.88,57.88,0,0,1,57.84,55.65,50.16,50.16,0,0,1,9.32,29.2V889.14H1686.47V883.6Z"/><path class="cls-5" d="M1788.08,662.08l-186.53-28.49h-.06l-.19.38-90,160.67,36.14,171.93,271.88-20.09h0l33.86-119Zm-.84,227.06H1686.47V750.93a50.39,50.39,0,1,1,100.77,0Z"/><path class="cls-4" d="M1607.3,846.88h9.4v33.7h16.55v7.88h-26Z"/><path class="cls-4" d="M1655.94,888.46l-.56-3h-.2a10.8,10.8,0,0,1-8.62,3.68c-6.15,0-9.76-4.41-9.76-9.24,0-7.86,7-11.59,17.72-11.58v-.38c0-1.61-.86-3.9-5.53-3.89a17.31,17.31,0,0,0-8.32,2.25l-1.73-6a24.45,24.45,0,0,1,11.73-2.7c10.06,0,13.24,5.94,13.24,13v10.53a43.46,43.46,0,0,0,.48,7.31Zm-1.14-14.28c-4.94,0-8.76,1.17-8.76,4.76a3.39,3.39,0,0,0,3.73,3.62,5.12,5.12,0,0,0,4.85-3.47,5.66,5.66,0,0,0,.18-1.6Z"/><path class="cls-4" d="M1594.12,941.63c-1.75.86-5.82,1.86-11,1.86-14.91,0-22.59-9.32-22.59-21.6,0-14.68,10.52-22.81,23.52-22.81,5.06,0,8.91,1,10.6,1.92l-2,7.69a20.57,20.57,0,0,0-8.18-1.61c-7.68,0-13.7,4.68-13.7,14.25,0,8.63,5.09,14.06,13.76,14.06a23.32,23.32,0,0,0,8.14-1.4Z"/><path class="cls-4" d="M1629.84,926.87c0,11.43-8.09,16.65-16.48,16.65-9.09,0-16.14-6-16.14-16.11s6.66-16.57,16.71-16.57C1623.49,910.84,1629.84,917.42,1629.84,926.87Zm-22.6.32c0,5.34,2.25,9.38,6.4,9.38,3.79,0,6.19-3.79,6.19-9.43,0-4.61-1.78-9.35-6.18-9.35C1609,917.79,1607.24,922.55,1607.24,927.19Z"/><path class="cls-4" d="M1635.88,921.85c0-4.59-.08-7.61-.26-10.3H1644l.35,5.78h.24a9.17,9.17,0,0,1,8.44-6.49,7.84,7.84,0,0,1,2.08.19v9.14a11.31,11.31,0,0,0-2.63-.27c-3.57,0-6,1.89-6.66,4.93a11,11,0,0,0-.18,2.17v15.82h-9.74Z"/><path class="cls-4" d="M1689.43,932.79c0,4.07.12,7.42.26,10h-8.43l-.45-4.42h-.2a11.11,11.11,0,0,1-9.75,5.12c-6.35,0-11-4-11-13.59V911.55h9.73v16.8c0,4.58,1.47,7.31,4.9,7.31a5.18,5.18,0,0,0,4.83-3.41,5.25,5.25,0,0,0,.36-2.07V911.55h9.73Z"/><path class="cls-4" d="M1720.71,942a22.85,22.85,0,0,1-8.7,1.46c-10.11,0-16.55-6.19-16.55-16,0-9.14,6.26-16.61,17.88-16.61a22.32,22.32,0,0,1,7.42,1.23l-1.51,7.22a13.12,13.12,0,0,0-5.44-1c-5.14,0-8.44,3.66-8.4,8.77,0,5.74,3.85,8.79,8.56,8.79a14.48,14.48,0,0,0,5.6-1Z"/><path class="cls-4" d="M1726.08,897.45h9.74v17.86h.12a11.05,11.05,0,0,1,3.81-3.23,10.88,10.88,0,0,1,5.06-1.24c6.21,0,11,4.3,11,13.73v18.25H1746V925.64c0-4.12-1.42-6.93-5-6.93a5.1,5.1,0,0,0-4.88,3.43,5.88,5.88,0,0,0-.31,2.13v18.55h-9.74Z"/><path class="cls-4" d="M1781.33,942.82l-.57-3.11h-.21a11.22,11.22,0,0,1-8.93,3.81c-6.37,0-10.11-4.57-10.11-9.57,0-8.14,7.29-12,18.35-12v-.4c0-1.66-.89-4-5.72-4a18,18,0,0,0-8.62,2.34l-1.79-6.23a25.36,25.36,0,0,1,12.15-2.8c10.42,0,13.71,6.16,13.71,13.5v10.9a46.56,46.56,0,0,0,.49,7.58ZM1780.15,928c-5.11,0-9.06,1.2-9.06,4.93,0,2.52,1.64,3.74,3.86,3.74a5.3,5.3,0,0,0,5-3.59,6.08,6.08,0,0,0,.18-1.66Z"/><path class="cls-1" d="M1350.67,966.32H1084.73l-56.3-229.75,109.94-161.7L1329.16,640,1399.06,754Zm-93.28-300.48H1257a57.89,57.89,0,0,0-57.89,57.89V883.36h116.22V723.73A57.89,57.89,0,0,0,1257.39,665.84Z"/><path class="cls-5" d="M1359,929.93l-274.23,36.39-48-195.73,89.61-178.17L1329.16,640l64.19,139ZM1257.39,665.84H1257a57.89,57.89,0,0,0-57.89,57.89V883.36h116.22V723.73A57.89,57.89,0,0,0,1257.39,665.84Z"/><path class="cls-4" d="M1142.62,853.7h9.4v33.7h16.54v7.89h-25.94Z"/><path class="cls-4" d="M1191.25,895.29l-.55-3h-.2a10.84,10.84,0,0,1-8.62,3.67c-6.15,0-9.77-4.41-9.77-9.23,0-7.87,7-11.6,17.72-11.58v-.39c0-1.61-.86-3.9-5.52-3.89a17.36,17.36,0,0,0-8.33,2.26l-1.73-6a24.5,24.5,0,0,1,11.74-2.7c10.06,0,13.24,5.94,13.24,13V888a44.85,44.85,0,0,0,.47,7.32ZM1190.11,881c-4.93,0-8.75,1.17-8.75,4.77a3.38,3.38,0,0,0,3.73,3.61,5.12,5.12,0,0,0,4.85-3.47,6,6,0,0,0,.17-1.6Z"/><path class="cls-4" d="M1136.66,938c-1.68.83-5.62,1.79-10.63,1.79-14.4,0-21.82-9-21.82-20.85,0-14.18,10.16-22,22.71-22,4.89,0,8.61,1,10.24,1.85l-1.92,7.43a19.87,19.87,0,0,0-7.9-1.56c-7.42,0-13.23,4.52-13.23,13.76,0,8.34,4.92,13.58,13.29,13.58a22.59,22.59,0,0,0,7.86-1.35Z"/><path class="cls-4" d="M1171.16,923.74c0,11-7.82,16.08-15.91,16.08-8.79,0-15.6-5.8-15.6-15.56s6.43-16,16.14-16C1165,908.27,1171.16,914.62,1171.16,923.74Zm-21.83.31c0,5.16,2.18,9.07,6.18,9.07,3.66,0,6-3.67,6-9.12,0-4.45-1.71-9-6-9C1151,915,1149.33,919.58,1149.33,924.05Z"/><path class="cls-4" d="M1177,918.9c0-4.43-.08-7.35-.25-9.95h8.07l.34,5.58h.23a8.85,8.85,0,0,1,8.15-6.26,7.79,7.79,0,0,1,2,.18v8.82A11.82,11.82,0,0,0,1193,917c-3.45,0-5.81,1.83-6.43,4.77a10.85,10.85,0,0,0-.18,2.09v15.27H1177Z"/><path class="cls-4" d="M1228.7,929.46c0,3.93.12,7.17.25,9.68h-8.14l-.43-4.26h-.2a10.69,10.69,0,0,1-9.41,4.94c-6.14,0-10.61-3.84-10.61-13.12V909h9.4v16.22c0,4.42,1.42,7.07,4.73,7.07a5,5,0,0,0,4.67-3.3,5.27,5.27,0,0,0,.34-2V909h9.4Z"/><path class="cls-4" d="M1258.91,938.39a22.17,22.17,0,0,1-8.41,1.4c-9.76,0-16-6-16-15.46,0-8.82,6-16,17.26-16a21.42,21.42,0,0,1,7.17,1.2l-1.47,7a12.49,12.49,0,0,0-5.25-1c-5,0-8.14,3.53-8.11,8.47,0,5.54,3.72,8.49,8.27,8.49a14,14,0,0,0,5.41-1Z"/><path class="cls-4" d="M1264.09,895.34h9.4v17.24h.12a10.66,10.66,0,0,1,3.68-3.11,10.44,10.44,0,0,1,4.89-1.2c6,0,10.58,4.15,10.58,13.26v17.61h-9.4V922.56c0-4-1.37-6.69-4.85-6.69a4.92,4.92,0,0,0-4.71,3.31,5.66,5.66,0,0,0-.31,2.05v17.91h-9.4Z"/><path class="cls-4" d="M1317.45,939.14l-.56-3h-.19a10.86,10.86,0,0,1-8.63,3.67c-6.15,0-9.76-4.41-9.76-9.24,0-7.86,7-11.59,17.72-11.58v-.38c0-1.61-.86-3.9-5.53-3.89a17.21,17.21,0,0,0-8.32,2.26l-1.73-6a24.5,24.5,0,0,1,11.74-2.7c10,0,13.23,5.94,13.23,13v10.53a43.38,43.38,0,0,0,.48,7.31Zm-1.14-14.28c-4.94,0-8.76,1.17-8.76,4.76a3.39,3.39,0,0,0,3.73,3.62,5.12,5.12,0,0,0,4.85-3.47,5.66,5.66,0,0,0,.18-1.6Z"/><path class="cls-1" d="M1313.66,1072.49l-174.59-58L1127.13,1032l-.25.37-94.8,129.56,4.78,23.11L1073,1357h265.93l6-20.09h0l33.86-119,5.72-25.08Z"/><path class="cls-5" d="M1313.66,1072.49,1127.13,1032h-.06l-.19.38-90,152.67L1073,1357l271.88-20.09h0l33.86-119Z"/><path class="cls-4" d="M1134.62,1224.55H1144v33.71h16.54v7.88h-26Z"/><path class="cls-4" d="M1183.26,1266.14l-.56-3h-.19a10.86,10.86,0,0,1-8.63,3.68c-6.15,0-9.76-4.42-9.76-9.24,0-7.87,7-11.6,17.72-11.58v-.39c0-1.61-.86-3.9-5.53-3.89A17.32,17.32,0,0,0,1168,1244l-1.73-6a24.36,24.36,0,0,1,11.74-2.71c10,0,13.23,6,13.23,13v10.53a43.59,43.59,0,0,0,.48,7.32Zm-1.14-14.28c-4.94,0-8.75,1.16-8.75,4.76a3.37,3.37,0,0,0,3.72,3.61,5.13,5.13,0,0,0,4.86-3.47,6,6,0,0,0,.17-1.6Z"/><path class="cls-4" d="M1154.39,1299.42c0,11.43-8.1,16.65-16.48,16.65-9.1,0-16.15-6-16.15-16.11s6.66-16.56,16.71-16.56C1148,1283.4,1154.39,1290,1154.39,1299.42Zm-22.61.32c0,5.34,2.26,9.39,6.4,9.39,3.79,0,6.19-3.79,6.19-9.44,0-4.61-1.78-9.35-6.18-9.35C1133.55,1290.34,1131.78,1295.11,1131.78,1299.74Z"/><path class="cls-4" d="M1160.43,1294.41c0-4.59-.09-7.61-.26-10.31h8.35l.36,5.79h.24a9.14,9.14,0,0,1,8.44-6.49,8.27,8.27,0,0,1,2.07.18v9.14a11.86,11.86,0,0,0-2.62-.27c-3.58,0-6,1.89-6.67,4.94a11.63,11.63,0,0,0-.18,2.16v15.82h-9.73Z"/><path class="cls-4" d="M1214,1305.35c0,4.07.12,7.42.25,10h-8.43l-.45-4.41h-.2a11.08,11.08,0,0,1-9.74,5.11c-6.36,0-11-4-11-13.58V1284.1h9.74v16.8c0,4.58,1.47,7.32,4.89,7.32a5.18,5.18,0,0,0,4.84-3.42,5.39,5.39,0,0,0,.35-2.06V1284.1H1214Z"/><path class="cls-4" d="M1245.26,1314.59a23,23,0,0,1-8.71,1.45c-10.11,0-16.54-6.18-16.54-16,0-9.14,6.25-16.61,17.88-16.61a22.26,22.26,0,0,1,7.41,1.23l-1.51,7.22a13,13,0,0,0-5.44-1c-5.14,0-8.43,3.65-8.4,8.77,0,5.74,3.86,8.79,8.56,8.79a14.44,14.44,0,0,0,5.6-1Z"/><path class="cls-4" d="M1250.62,1273h9.74v14.86h.12a11,11,0,0,1,3.81-3.23,10.76,10.76,0,0,1,5.06-1.24c6.21,0,11,4.3,11,13.73v18.24h-9.74v-17.18c0-4.11-1.41-6.92-5-6.92a5.11,5.11,0,0,0-4.88,3.43,6,6,0,0,0-.31,2.12v18.55h-9.74Z"/><path class="cls-4" d="M1305.88,1315.37l-.58-3.1h-.2a11.25,11.25,0,0,1-8.93,3.8c-6.37,0-10.11-4.57-10.11-9.56,0-8.15,7.29-12,18.35-12v-.4c0-1.67-.89-4-5.73-4a17.87,17.87,0,0,0-8.62,2.34l-1.79-6.23a25.38,25.38,0,0,1,12.16-2.8c10.41,0,13.7,6.15,13.7,13.49v10.91a45.16,45.16,0,0,0,.5,7.57Zm-1.18-14.79c-5.12,0-9.07,1.21-9.07,4.93,0,2.52,1.64,3.74,3.86,3.74a5.28,5.28,0,0,0,5-3.59,5.61,5.61,0,0,0,.19-1.65Z"/><path class="cls-4" d="M1258.12,1106.16h0a42.22,42.22,0,0,1,42.22,42.22v118.44a0,0,0,0,1,0,0h-84.44a0,0,0,0,1,0,0V1148.38A42.22,42.22,0,0,1,1258.12,1106.16Z"/><path class="cls-1" d="M2073.57,1371.68a26.59,26.59,0,0,1-26-21.45l-25.19-126.88-2.84-13.74a26.53,26.53,0,0,1,2.85-18.37l71.19-126.71.24-.37a26.46,26.46,0,0,1,29.3-15.21l156.22,30.44a26.46,26.46,0,0,1,19.55,16.15l53.12,132.2a26.53,26.53,0,0,1,1.25,15.8l-2,8.59c-1.33,5.8-2.9,11.62-4.68,17.29l-26.19,81.47a.49.49,0,0,1,0,.11l-.5,1.68a26.69,26.69,0,0,1-25.44,19Z"/><path class="cls-6" d="M2118,1049.45a25.59,25.59,0,0,1,4.9.48l156.22,30.44a25.55,25.55,0,0,1,18.81,15.54L2351,1228.12a25.47,25.47,0,0,1,1.2,15.19l-2,8.6q-2,8.7-4.65,17.21l-26.19,81.47h0l-.54,1.81a25.53,25.53,0,0,1-24.48,18.28H2073.57a25.54,25.54,0,0,1-25.06-20.64l-25.19-126.88-2.84-13.75a25.56,25.56,0,0,1,2.74-17.68L2094.41,1065l.25-.37a25.53,25.53,0,0,1,23.33-15.2m0-2a27.56,27.56,0,0,0-25.09,16.22l-.15.23a.64.64,0,0,0-.08.14l-71.19,126.71a27.57,27.57,0,0,0-3,19.06l2.85,13.76,25.18,126.86a27.59,27.59,0,0,0,27,22.25h220.84a27.7,27.7,0,0,0,26.4-19.71l.48-1.63.06-.14,26.18-81.47c1.79-5.71,3.37-11.55,4.7-17.38l2-8.59a27.44,27.44,0,0,0-1.29-16.39l-53.12-132.2a27.44,27.44,0,0,0-20.29-16.76L2123.27,1048a28.37,28.37,0,0,0-5.28-.51Z"/><path class="cls-3" d="M2324.25,1335.27l19.34-59.66a50.09,50.09,0,0,0,0-30L2298,1097.68a25.53,25.53,0,0,0-22-17.79l-170.55-14.45a16.68,16.68,0,0,0-16.75,9.76l-62.08,140.56a25.57,25.57,0,0,0-1.77,15.36l23.32,117.29a25.53,25.53,0,0,0,27,20.56l228.27-17.18A23.68,23.68,0,0,0,2324.25,1335.27Z"/><path class="cls-4" d="M2096.54,1317.88a2.49,2.49,0,0,1-1.69,2.86,40.84,40.84,0,0,1-11.33,1.47c-18.17,0-27.54-11.36-27.54-26.32,0-17.89,12.82-27.8,28.67-27.8a37.89,37.89,0,0,1,9.88,1.19,3.28,3.28,0,0,1,2.3,4l-.8,3.09a3.31,3.31,0,0,1-4.07,2.34,26.23,26.23,0,0,0-6.78-.87c-9.37,0-16.7,5.71-16.7,17.37,0,10.52,6.2,17.14,16.77,17.14a31.93,31.93,0,0,0,7.37-.89,2.5,2.5,0,0,1,3.07,2Z"/><path class="cls-4" d="M2136,1304.08c0,12.47-8.83,18.16-18,18.16-9.93,0-17.61-6.56-17.61-17.57s7.26-18.06,18.22-18.06C2129,1286.61,2136,1293.78,2136,1304.08Zm-24.18-4.28c-1.59,7.94.84,14.87,6.5,14.87,4.14,0,6.75-4.14,6.75-10.29,0-5-1.88-10.06-6.54-10.2A6.83,6.83,0,0,0,2111.78,1299.8Z"/><path class="cls-4" d="M2142.55,1298.61c0-3.63-.05-6.36-.15-8.7a2.43,2.43,0,0,1,2.43-2.54h4.26a2.42,2.42,0,0,1,2.42,2.28l.25,4h.26a10,10,0,0,1,9.21-7.07h.64a1.66,1.66,0,0,1,1.62,1.66v6.56a1.68,1.68,0,0,1-1.77,1.69c-.33,0-.69,0-1.09,0-3.9,0-6.56,2.06-7.27,5.38a12,12,0,0,0-.2,2.36v14.65a2.6,2.6,0,0,1-2.6,2.61h-5.41a2.6,2.6,0,0,1-2.6-2.61Z"/><path class="cls-4" d="M2201,1310.54c0,3.26.07,6.11.17,8.51a2.34,2.34,0,0,1-2.34,2.43h-4.63a2.34,2.34,0,0,1-2.33-2.11l-.28-2.71h-.22a12.07,12.07,0,0,1-10.62,5.58c-6.94,0-12-4.33-12-14.82v-17a3.07,3.07,0,0,1,3.07-3.07h4.49a3.06,3.06,0,0,1,3.06,3.07v15.26c0,5,1.6,8,5.34,8a5.63,5.63,0,0,0,5.27-3.72,5.75,5.75,0,0,0,.39-2.26V1290a2.64,2.64,0,0,1,2.64-2.64h5.34A2.64,2.64,0,0,1,2201,1290Z"/><path class="cls-4" d="M2234.88,1319.44a1.48,1.48,0,0,1-1,1.64,28.24,28.24,0,0,1-8.3,1.13c-11,0-18-6.75-18-17.46,0-10,6.82-18.12,19.5-18.12a26.17,26.17,0,0,1,6.32.79,1.92,1.92,0,0,1,1.41,2.25l-.85,4.08a1.92,1.92,0,0,1-2.34,1.46,16.46,16.46,0,0,0-4-.45c-5.6,0-9.2,4-9.16,9.56,0,6.27,4.21,9.59,9.34,9.59a16.78,16.78,0,0,0,4.55-.58,1.46,1.46,0,0,1,1.83,1.19Z"/><path class="cls-4" d="M2243.11,1275.27h6.23a2.21,2.21,0,0,1,2.2,2.2v14h.13a11.94,11.94,0,0,1,4.16-3.52,11.74,11.74,0,0,1,5.52-1.35c6.76,0,11.94,4.68,11.94,15v17.65a2.24,2.24,0,0,1-2.24,2.25h-6.13a2.25,2.25,0,0,1-2.25-2.25v-16.49c0-4.49-1.54-7.56-5.47-7.56a5.58,5.58,0,0,0-5.32,3.75,6.4,6.4,0,0,0-.34,2.31v17.66a2.59,2.59,0,0,1-2.58,2.58h-5.47a2.58,2.58,0,0,1-2.57-2.58v-41.43A2.2,2.2,0,0,1,2243.11,1275.27Z"/><path class="cls-4" d="M2302.71,1321.48a1.84,1.84,0,0,1-1.81-1.51l-.35-1.88h-.22a12.26,12.26,0,0,1-9.74,4.15c-7,0-11-5-11-10.43,0-8.89,8-13.1,20-13.08v-.44c0-1.81-1-4.4-6.24-4.39a19.74,19.74,0,0,0-7.22,1.48,2.16,2.16,0,0,1-2.89-1.42l-.74-2.56a2.16,2.16,0,0,1,1.2-2.58,29.4,29.4,0,0,1,11.55-2.21c11.36,0,14.95,6.71,14.95,14.71v11.9c0,2.27.09,4.47.26,6.24a1.84,1.84,0,0,1-1.84,2Zm-2.82-16.13c-5.58,0-9.89,1.31-9.89,5.37,0,2.75,1.8,4.08,4.21,4.08a5.77,5.77,0,0,0,5.48-3.91,6.37,6.37,0,0,0,.2-1.81Z"/><path class="cls-1" d="M2232,1110.74h0a41.11,41.11,0,0,0-41.32,40.9v109.62a5.86,5.86,0,0,0,5.86,5.86h70.92a5.85,5.85,0,0,0,5.85-5.86V1151.64A41.1,41.1,0,0,0,2232,1110.74Z"/><path class="cls-4" d="M2109.5,1232.19h6.26a1.53,1.53,0,0,1,1.53,1.53v25.07a6.81,6.81,0,0,0,6.81,6.81h8.06a1.54,1.54,0,0,1,1.53,1.53v4.75a1.54,1.54,0,0,1-1.53,1.54H2122a14,14,0,0,1-14-14v-25.67A1.53,1.53,0,0,1,2109.5,1232.19Z"/><path class="cls-4" d="M2157.71,1273.42a1.83,1.83,0,0,1-1.8-1.5l-.28-1.48h-.19a10.75,10.75,0,0,1-8.55,3.65c-6.1,0-9.68-4.38-9.68-9.16,0-7.8,7-11.5,17.57-11.48v-.38c0-1.6-.86-3.87-5.48-3.86a17.37,17.37,0,0,0-6.55,1.38,1.65,1.65,0,0,1-2.25-1l-.79-2.76a1.63,1.63,0,0,1,.9-2,25.7,25.7,0,0,1,10.36-2c10,0,13.12,5.89,13.12,12.92v10.43c0,1.91.07,3.75.21,5.26a1.84,1.84,0,0,1-1.84,2Zm-2.66-14.16c-4.89,0-8.68,1.15-8.68,4.72a3.36,3.36,0,0,0,3.7,3.58,5.07,5.07,0,0,0,4.81-3.44,5.92,5.92,0,0,0,.17-1.59Z"/><path class="cls-1" d="M1752.57,1080.37l-156.22-30.44a25.53,25.53,0,0,0-28.23,14.72h0l-.25.37-71.19,126.71a25.56,25.56,0,0,0-2.74,17.68l2.84,13.75L1522,1350a25.54,25.54,0,0,0,25.06,20.64h220.84a25.55,25.55,0,0,0,24.49-18.28l.53-1.81h0l26.19-81.47q2.67-8.5,4.65-17.21l2-8.6a25.47,25.47,0,0,0-1.2-15.19l-53.12-132.21A25.55,25.55,0,0,0,1752.57,1080.37Z"/><path class="cls-3" d="M1797.71,1335.27l19.34-59.66a50.17,50.17,0,0,0,0-30l-45.57-147.93a25.53,25.53,0,0,0-22-17.79l-170.55-14.45a16.68,16.68,0,0,0-16.75,9.76l-62.08,140.56a25.57,25.57,0,0,0-1.77,15.36l23.32,117.29a25.53,25.53,0,0,0,27,20.56l228.27-17.18A23.68,23.68,0,0,0,1797.71,1335.27Z"/><path class="cls-4" d="M1570,1317.88a2.49,2.49,0,0,1-1.69,2.86,40.84,40.84,0,0,1-11.33,1.47c-18.17,0-27.54-11.36-27.54-26.32,0-17.89,12.82-27.8,28.67-27.8a37.89,37.89,0,0,1,9.88,1.19,3.28,3.28,0,0,1,2.3,4l-.8,3.09a3.3,3.3,0,0,1-4.07,2.34,26.23,26.23,0,0,0-6.78-.87c-9.37,0-16.7,5.71-16.7,17.37,0,10.52,6.2,17.14,16.77,17.14a31.93,31.93,0,0,0,7.37-.89,2.5,2.5,0,0,1,3.07,2Z"/><path class="cls-4" d="M1609.42,1304.08c0,12.47-8.83,18.16-18,18.16-9.93,0-17.61-6.56-17.61-17.57s7.26-18.06,18.22-18.06C1602.49,1286.61,1609.42,1293.78,1609.42,1304.08Zm-24.18-4.28c-1.59,7.94.84,14.87,6.5,14.87,4.14,0,6.75-4.14,6.75-10.29,0-5-1.88-10.06-6.54-10.2A6.83,6.83,0,0,0,1585.24,1299.8Z"/><path class="cls-4" d="M1616,1298.61c0-3.63,0-6.36-.15-8.7a2.43,2.43,0,0,1,2.43-2.54h4.26a2.44,2.44,0,0,1,2.43,2.28l.24,4h.26a10,10,0,0,1,9.21-7.07h.64a1.66,1.66,0,0,1,1.62,1.66v6.56a1.68,1.68,0,0,1-1.77,1.69c-.33,0-.69,0-1.09,0-3.9,0-6.56,2.06-7.27,5.38a12.83,12.83,0,0,0-.2,2.36v14.65a2.6,2.6,0,0,1-2.6,2.61h-5.41a2.6,2.6,0,0,1-2.6-2.61Z"/><path class="cls-4" d="M1674.41,1310.54c0,3.26.07,6.11.17,8.51a2.34,2.34,0,0,1-2.34,2.43h-4.63a2.34,2.34,0,0,1-2.33-2.11l-.28-2.71h-.22a12.07,12.07,0,0,1-10.62,5.58c-6.94,0-12-4.33-12-14.82v-17a3.07,3.07,0,0,1,3.07-3.07h4.49a3.06,3.06,0,0,1,3.06,3.07v15.26c0,5,1.6,8,5.34,8a5.63,5.63,0,0,0,5.27-3.72,5.75,5.75,0,0,0,.39-2.26V1290a2.64,2.64,0,0,1,2.64-2.64h5.34a2.64,2.64,0,0,1,2.64,2.64Z"/><path class="cls-4" d="M1708.34,1319.44a1.48,1.48,0,0,1-1,1.64,28.24,28.24,0,0,1-8.3,1.13c-11,0-18-6.75-18-17.46,0-10,6.82-18.12,19.5-18.12a26.11,26.11,0,0,1,6.32.79,1.92,1.92,0,0,1,1.41,2.25l-.85,4.08a1.92,1.92,0,0,1-2.34,1.46,16.46,16.46,0,0,0-4-.45c-5.6,0-9.2,4-9.16,9.56,0,6.27,4.21,9.59,9.34,9.59a16.78,16.78,0,0,0,4.55-.58,1.46,1.46,0,0,1,1.83,1.19Z"/><path class="cls-4" d="M1716.57,1275.27h6.23a2.21,2.21,0,0,1,2.2,2.2v14h.13a11.94,11.94,0,0,1,4.16-3.52,11.74,11.74,0,0,1,5.52-1.35c6.76,0,11.94,4.68,11.94,15v17.65a2.24,2.24,0,0,1-2.24,2.25h-6.13a2.25,2.25,0,0,1-2.25-2.25v-16.49c0-4.49-1.54-7.56-5.47-7.56a5.58,5.58,0,0,0-5.32,3.75,6.4,6.4,0,0,0-.34,2.31v17.66a2.59,2.59,0,0,1-2.58,2.58H1717a2.58,2.58,0,0,1-2.57-2.58v-41.43A2.2,2.2,0,0,1,1716.57,1275.27Z"/><path class="cls-4" d="M1776.17,1321.48a1.84,1.84,0,0,1-1.81-1.51l-.35-1.88h-.22a12.26,12.26,0,0,1-9.74,4.15c-7,0-11-5-11-10.43,0-8.89,8-13.1,20-13.08v-.44c0-1.81-1-4.4-6.24-4.39a19.74,19.74,0,0,0-7.22,1.48,2.16,2.16,0,0,1-2.89-1.42l-.74-2.56a2.16,2.16,0,0,1,1.2-2.58,29.4,29.4,0,0,1,11.55-2.21c11.36,0,15,6.71,15,14.71v11.9c0,2.27.09,4.47.26,6.24a1.84,1.84,0,0,1-1.84,2Zm-2.82-16.13c-5.58,0-9.89,1.31-9.89,5.37,0,2.75,1.8,4.08,4.21,4.08a5.77,5.77,0,0,0,5.48-3.91,6.37,6.37,0,0,0,.2-1.81Z"/><path class="cls-1" d="M1705.44,1110.74h0a41.11,41.11,0,0,0-41.32,40.9v109.62a5.86,5.86,0,0,0,5.86,5.86h70.92a5.85,5.85,0,0,0,5.85-5.86V1151.64A41.1,41.1,0,0,0,1705.44,1110.74Z"/><path class="cls-4" d="M1589,1226.19h6.26a1.53,1.53,0,0,1,1.53,1.53v31.88h14.87a1.54,1.54,0,0,1,1.53,1.53v4.75a1.54,1.54,0,0,1-1.53,1.54h-22.19a2,2,0,0,1-2-2v-37.7A1.53,1.53,0,0,1,1589,1226.19Z"/><path class="cls-4" d="M1637.17,1267.42a1.83,1.83,0,0,1-1.8-1.5l-.28-1.48h-.19a10.75,10.75,0,0,1-8.55,3.65c-6.1,0-9.68-4.38-9.68-9.16,0-7.8,7-11.5,17.57-11.48v-.38c0-1.6-.86-3.87-5.48-3.86a17.37,17.37,0,0,0-6.55,1.38,1.65,1.65,0,0,1-2.25-1l-.79-2.76a1.63,1.63,0,0,1,.9-2,25.74,25.74,0,0,1,10.36-2c10,0,13.12,5.89,13.12,12.92v10.43c0,1.91.07,3.75.21,5.26a1.84,1.84,0,0,1-1.84,2Zm-2.65-14.16c-4.9,0-8.69,1.15-8.69,4.72a3.36,3.36,0,0,0,3.7,3.58,5.07,5.07,0,0,0,4.81-3.44,5.55,5.55,0,0,0,.18-1.59Z"/><path class="cls-2" d="M834.51,1074.61l-174.6-58L648,1034.13l-.25.37-94.8,129.56,4.78,23.1,36.14,171.94H859.77l6-20.09h0l33.86-119,5.72-25.08Z"/><path class="cls-3" d="M834.51,1074.61,648,1034.13h-.06l-.19.38-90,152.66,36.14,171.94L865.72,1339h0l33.86-119Z"/><path class="cls-2" d="M639.7,1307.36c-2.13,1.05-7.1,2.26-13.41,2.26-18.18,0-27.54-11.35-27.54-26.32,0-17.89,12.82-27.8,28.66-27.8,6.17,0,10.86,1.21,12.92,2.34l-2.42,9.37a25.13,25.13,0,0,0-10-2c-9.36,0-16.7,5.7-16.7,17.36,0,10.53,6.2,17.14,16.77,17.14a28.6,28.6,0,0,0,9.92-1.7Z"/><path class="cls-2" d="M678.72,1291.5c0,12.46-8.82,18.16-18,18.16-9.92,0-17.61-6.56-17.61-17.57S650.4,1274,661.36,1274C671.79,1274,678.72,1281.2,678.72,1291.5Zm-24.65.35c0,5.82,2.46,10.23,7,10.23,4.13,0,6.75-4.13,6.75-10.29,0-5-1.94-10.19-6.74-10.19C656,1281.6,654.07,1286.79,654.07,1291.85Z"/><path class="cls-2" d="M685.31,1286c0-5-.09-8.3-.28-11.24h9.11l.38,6.31h.27A10,10,0,0,1,704,1274a8.84,8.84,0,0,1,2.27.2v10a12.7,12.7,0,0,0-2.87-.3c-3.9,0-6.56,2.07-7.27,5.39a12.89,12.89,0,0,0-.19,2.36v17.25H685.31Z"/><path class="cls-2" d="M743.71,1298c0,4.43.13,8.09.28,10.93H734.8l-.49-4.81h-.22a12.11,12.11,0,0,1-10.63,5.58c-6.93,0-12-4.34-12-14.82v-20H722.1v18.32c0,5,1.6,8,5.34,8a5.66,5.66,0,0,0,5.27-3.73,5.92,5.92,0,0,0,.38-2.25v-20.32h10.62Z"/><path class="cls-2" d="M777.83,1308a24.85,24.85,0,0,1-9.5,1.59c-11,0-18-6.74-18-17.45,0-10,6.82-18.12,19.5-18.12a24.32,24.32,0,0,1,8.09,1.34l-1.65,7.88a14.29,14.29,0,0,0-5.94-1.09c-5.6,0-9.19,4-9.15,9.56,0,6.26,4.2,9.59,9.33,9.59a15.88,15.88,0,0,0,6.11-1.11Z"/><path class="cls-2" d="M783.68,1262.69H794.3v16.2h.14a12,12,0,0,1,4.15-3.52,11.74,11.74,0,0,1,5.52-1.35c6.77,0,11.95,4.69,11.95,15v19.9H805.44v-18.73c0-4.49-1.55-7.56-5.48-7.56a5.57,5.57,0,0,0-5.32,3.74,6.46,6.46,0,0,0-.34,2.32v20.23H783.68Z"/><path class="cls-2" d="M843.94,1308.89l-.63-3.39h-.22a12.22,12.22,0,0,1-9.74,4.16c-6.94,0-11-5-11-10.44,0-8.88,7.95-13.09,20-13.07v-.44c0-1.82-1-4.4-6.24-4.39a19.64,19.64,0,0,0-9.4,2.54l-2-6.79a27.74,27.74,0,0,1,13.26-3c11.36,0,15,6.71,15,14.72v11.89a49.48,49.48,0,0,0,.54,8.26Zm-1.28-16.13c-5.58,0-9.89,1.32-9.89,5.38,0,2.75,1.79,4.08,4.21,4.08a5.79,5.79,0,0,0,5.48-3.92,6.7,6.7,0,0,0,.2-1.81Z"/><path class="cls-2" d="M774.74,1099.16h0a41.11,41.11,0,0,0-41.32,40.9v115.48h82.64V1140.06A41.11,41.11,0,0,0,774.74,1099.16Z"/><path class="cls-2" d="M656.73,1214.6h9.32V1248h16.4v7.81H656.73Z"/><path class="cls-2" d="M705,1255.83l-.55-3h-.2a10.74,10.74,0,0,1-8.55,3.64c-6.1,0-9.68-4.37-9.68-9.16,0-7.8,7-11.49,17.57-11.48v-.38c0-1.59-.85-3.86-5.48-3.85a17.17,17.17,0,0,0-8.25,2.23l-1.71-6a24.21,24.21,0,0,1,11.63-2.68c10,0,13.12,5.89,13.12,12.92v10.44a42.76,42.76,0,0,0,.48,7.25Zm-1.13-14.16c-4.9,0-8.68,1.16-8.68,4.72a3.35,3.35,0,0,0,3.69,3.58,5.07,5.07,0,0,0,4.81-3.43,5.59,5.59,0,0,0,.18-1.59Z"/><path class="cls-2" d="M404.74,1060.51l-189.84-37-8.24,18.62-.25.37-75.87,135,4.78,23.11,29.22,151.51H425.47l6-20.09h0l28.85-94L466,1213Z"/><path class="cls-3" d="M404.74,1060.51l-198.08-18.38h-.06l-.19.38-71.09,158.14,29.22,151.51,266.89-20.09h0l28.85-94Z"/><path class="cls-2" d="M208.93,1295.42c-2.12,1-7.1,2.27-13.41,2.27-18.18,0-27.54-11.36-27.54-26.32,0-17.89,12.82-27.8,28.66-27.8,6.17,0,10.86,1.2,12.92,2.33l-2.42,9.38a24.94,24.94,0,0,0-10-2c-9.36,0-16.7,5.71-16.7,17.37,0,10.52,6.21,17.13,16.77,17.13a28.32,28.32,0,0,0,9.92-1.7Z"/><path class="cls-2" d="M248,1279.56c0,12.46-8.83,18.16-18,18.16-9.92,0-17.61-6.56-17.61-17.57s7.26-18.07,18.23-18.07C241,1262.08,248,1269.26,248,1279.56Zm-24.66.35c0,5.82,2.46,10.24,7,10.24,4.13,0,6.75-4.14,6.75-10.3,0-5-1.94-10.19-6.74-10.19C225.23,1269.66,223.3,1274.85,223.3,1279.91Z"/><path class="cls-2" d="M254.54,1274.09c0-5-.09-8.3-.28-11.24h9.11l.39,6.31H264a10,10,0,0,1,9.21-7.08,9.27,9.27,0,0,1,2.26.2v10a12.66,12.66,0,0,0-2.86-.29c-3.9,0-6.56,2.06-7.27,5.38a12,12,0,0,0-.2,2.36V1297H254.54Z"/><path class="cls-2" d="M313,1286c0,4.44.13,8.1.28,10.93H304l-.49-4.81h-.22a12.08,12.08,0,0,1-10.63,5.58c-6.93,0-12-4.34-12-14.82v-20.05h10.62v18.33c0,5,1.6,8,5.34,8a5.83,5.83,0,0,0,5.66-6v-20.32H313Z"/><path class="cls-2" d="M347.06,1296.1a25,25,0,0,1-9.5,1.59c-11,0-18-6.75-18-17.46,0-10,6.82-18.12,19.5-18.12a24.31,24.31,0,0,1,8.09,1.35l-1.65,7.87a14.2,14.2,0,0,0-5.93-1.09c-5.61,0-9.2,4-9.16,9.56,0,6.27,4.2,9.59,9.33,9.59a15.88,15.88,0,0,0,6.11-1.11Z"/><path class="cls-2" d="M352.91,1250.75h10.62V1267h.14a12,12,0,0,1,4.15-3.53,11.86,11.86,0,0,1,5.52-1.35c6.77,0,12,4.69,12,15V1297H374.67v-18.73c0-4.49-1.54-7.56-5.48-7.56a5.59,5.59,0,0,0-5.32,3.75,6.63,6.63,0,0,0-.34,2.31V1297H352.91Z"/><path class="cls-2" d="M413.18,1297l-.63-3.38h-.22a12.27,12.27,0,0,1-9.75,4.15c-6.94,0-11-5-11-10.43,0-8.89,7.95-13.1,20-13.08v-.44c0-1.81-1-4.4-6.24-4.39a19.53,19.53,0,0,0-9.4,2.55l-1.95-6.79a27.52,27.52,0,0,1,13.25-3.06c11.36,0,14.95,6.72,14.95,14.72v11.89a49.4,49.4,0,0,0,.54,8.26Zm-1.29-16.13c-5.58,0-9.89,1.32-9.89,5.38,0,2.75,1.79,4.08,4.21,4.08a5.78,5.78,0,0,0,5.48-3.91,6.75,6.75,0,0,0,.2-1.81Z"/><path class="cls-2" d="M344,1087.22h0a41.1,41.1,0,0,0-41.31,40.9V1243.6h82.63V1128.12A41.11,41.11,0,0,0,344,1087.22Z"/><path class="cls-2" d="M226,1202.67h9.32v33.41h16.41v7.81H226Z"/><path class="cls-2" d="M274.18,1243.89l-.55-3h-.19a10.79,10.79,0,0,1-8.56,3.65c-6.09,0-9.67-4.38-9.67-9.16,0-7.8,7-11.5,17.56-11.48v-.39c0-1.59-.85-3.86-5.48-3.85a17.17,17.17,0,0,0-8.25,2.23l-1.71-6a24.24,24.24,0,0,1,11.63-2.68c10,0,13.13,5.9,13.13,12.92v10.44a43.91,43.91,0,0,0,.47,7.25Zm-1.13-14.16c-4.89,0-8.68,1.16-8.68,4.73,0,2.41,1.57,3.58,3.7,3.58a5.08,5.08,0,0,0,4.81-3.44,5.92,5.92,0,0,0,.17-1.59Z"/></svg>